<?xml version="1.0" encoding="iso-8859-1"?>
<!-- Generator: Adobe Illustrator 19.0.0, SVG Export Plug-In . SVG Version: 6.00 Build 0)  -->
<svg version="1.1" id="Capa_1" xmlns="http://www.w3.org/2000/svg" xmlns:xlink="http://www.w3.org/1999/xlink" x="0px" y="0px"
	 viewBox="0 0 496 496" style="enable-background:new 0 0 496 496;" xml:space="preserve">
<path style="fill:#F3F4F5;" d="M496,369.6c0,27.2-21.6,46.4-48,46.4H48c-26.4,0-48-19.2-48-46.4V126.4C0,99.2,21.6,80,48,80h400
	c26.4,0,48,19.2,48,46.4V369.6z"/>
<path style="fill:#E0E0E0;" d="M48,80h400c26.4,0,48,19.2,48,46.4v243.2c0,27.2-24.8,46.4-51.2,46.4"/>
<g>
	<path style="fill:#CCCCCC;" d="M496,368.8c0,28.8-21.6,47.2-48,47.2H48c-26.4,0-48-20.8-48-48"/>
	<path style="fill:#CCCCCC;" d="M48,80h400c26.4,0,48,19.2,48,46.4V216"/>
</g>
<path style="fill:#036535;" d="M248,80H48C22.4,80,0,97.6,0,123.2v249.6C0,398.4,22.4,416,48,416h200V80z"/>
<polygon style="fill:#02562A;" points="248,80 48,80 248,248 "/>
<g>
	<polygon style="fill:#044723;" points="248,80 48,80 248,140.8 	"/>
	<path style="fill:#044723;" d="M0,368v4.8l0,0c0,1.6,0,3.2,0,4.8l0,0C0,390.4,14.4,416,48,416l0,0h200v-48H0z"/>
</g>
<path style="fill:#E61E25;" d="M193.6,248c0-42.4,34.4-76,76-76c14.4,0,27.2,4,38.4,10.4c-16.8-16.8-39.2-26.4-64.8-26.4
	c-50.4,0-91.2,40.8-91.2,92s41.6,92,92,92c25.6,0,48-10.4,64.8-26.4C297.6,320,284,324,270.4,324C228,324,193.6,290.4,193.6,248z"/>
<path style="fill:#A30D1F;" d="M175.2,186.4l28.8,24c12.8-23.2,38.4-39.2,66.4-39.2c14.4,0,27.2,4,38.4,10.4
	c-16.8-16.8-39.2-26.4-64.8-26.4C216.8,156,192,168,175.2,186.4z"/>
<polygon style="fill:#E61E25;" points="311.2,199.2 310.4,236 344,248 309.6,258.4 308,294.4 288,264.8 252.8,274.4 275.2,245.6 
	255.2,216 288.8,228 "/>
<polygon style="fill:#A30D1F;" points="311.2,199.2 288.8,228 255.2,216 275.2,245.6 263.2,261.6 271.2,269.6 288,264.8 308,294.4 
	309.6,258.4 344,248 310.4,236 "/>
<g>
</g>
<g>
</g>
<g>
</g>
<g>
</g>
<g>
</g>
<g>
</g>
<g>
</g>
<g>
</g>
<g>
</g>
<g>
</g>
<g>
</g>
<g>
</g>
<g>
</g>
<g>
</g>
<g>
</g>
</svg>
