<svg width="22" height="22" viewBox="0 0 30 30" fill="none" xmlns="http://www.w3.org/2000/svg">
<path d="M6.29289 6.29289C6.68342 5.90237 7.31658 5.90237 7.70711 6.29289L12 10.5858L16.2929 6.29289C16.6834 5.90237 17.3166 5.90237 17.7071 6.29289C18.0676 6.65338 18.0953 7.22061 17.7903 7.6129L17.7071 7.70711L13.4142 12L17.7071 16.2929L17.7903 16.3871C18.0953 16.7794 18.0676 17.3466 17.7071 17.7071C17.3166 18.0976 16.6834 18.0976 16.2929 17.7071L12 13.4142L7.70711 17.7071C7.31658 18.0976 6.68342 18.0976 6.29289 17.7071C5.93241 17.3466 5.90468 16.7794 6.2097 16.3871L6.29289 16.2929L10.5858 12L6.29289 7.70711L6.2097 7.6129C5.90468 7.22061 5.93241 6.65338 6.29289 6.29289Z" fill="black"/>
</svg>
