<svg width="56" height="56" viewBox="0 0 56 56" fill="none" xmlns="http://www.w3.org/2000/svg">
<path d="M12 19C12 27.8366 19.1634 35 28 35C36.8366 35 44 27.8366 44 19C44 10.1634 36.8366 3 28 3C19.1634 3 12 10.1634 12 19Z" fill="black"/>
<path fill-rule="evenodd" clip-rule="evenodd" d="M20 48C20 52.4183 23.5817 56 28 56C32.4183 56 36 52.4183 36 48C36 43.5817 32.4183 40 28 40C23.5817 40 20 43.5817 20 48ZM32 48C32 50.2091 30.2091 52 28 52C25.7909 52 24 50.2091 24 48C24 45.7909 25.7909 44 28 44C30.2091 44 32 45.7909 32 48Z" fill="black"/>
<path fill-rule="evenodd" clip-rule="evenodd" d="M28 52C30.2091 52 32 50.2091 32 48C32 45.7909 30.2091 44 28 44C25.7909 44 24 45.7909 24 48C24 50.2091 25.7909 52 28 52Z" fill="white"/>
<path fill-rule="evenodd" clip-rule="evenodd" d="M23 12H34C34.824 12 35.2944 12.9408 34.8 13.6L32.25 17L34.8 20.4C35.2944 21.0592 34.824 22 34 22H23V27C23 27.5523 22.5523 28 22 28C21.4477 28 21 27.5523 21 27V11C21 10.4477 21.4477 10 22 10C22.5523 10 23 10.4477 23 11V12Z" fill="white"/>
</svg>
