<svg width="24" height="24" viewBox="0 0 24 24" fill="none" xmlns="http://www.w3.org/2000/svg">
<path fill-rule="evenodd" clip-rule="evenodd" d="M8 5C6.34315 5 5 6.34315 5 8V17.8512C5 18.4864 5.68626 18.8847 6.2378 18.5695C6.98663 18.1416 7.88982 18.0789 8.69059 18.3992L9.62861 18.7744C9.86702 18.8698 10.133 18.8698 10.3714 18.7744L11.3094 18.3992C12.1102 18.0789 13.0134 18.1416 13.7622 18.5695C14.3137 18.8847 15 18.4864 15 17.8512V6C15 5.64936 15.0602 5.31278 15.1707 5H8ZM18 3H17.9805H17.9609H17.9414H17.9219H8C5.23858 3 3 5.23858 3 8V17.8512C3 20.0221 5.34522 21.3831 7.23008 20.306C7.4492 20.1808 7.71349 20.1624 7.94781 20.2562L8.88583 20.6314C9.60106 20.9175 10.3989 20.9175 11.1142 20.6314L12.0522 20.2562C12.2865 20.1624 12.5508 20.1808 12.7699 20.306C14.6548 21.3831 17 20.0221 17 17.8512V12H20H21V11V6C21 4.34315 19.6569 3 18 3ZM19 6C19 5.44772 18.5523 5 18 5C17.4477 5 17 5.44772 17 6V10H19V6ZM7 15C7 14.4477 7.44772 14 8 14H12C12.5523 14 13 14.4477 13 15C13 15.5523 12.5523 16 12 16H8C7.44772 16 7 15.5523 7 15ZM8 10C7.44772 10 7 10.4477 7 11C7 11.5523 7.44772 12 8 12H12C12.5523 12 13 11.5523 13 11C13 10.4477 12.5523 10 12 10H8Z" fill="black"/>
</svg>
